<?xml version="1.0" encoding="UTF-8" standalone="no"?>
<!DOCTYPE svg PUBLIC "-//W3C//DTD SVG 1.1//EN" "http://www.w3.org/Graphics/SVG/1.1/DTD/svg11.dtd">
<svg width="100%" height="100%" viewBox="0 0 1000 1000" version="1.1" xmlns="http://www.w3.org/2000/svg" xmlns:xlink="http://www.w3.org/1999/xlink" xml:space="preserve" xmlns:serif="http://www.serif.com/" style="fill-rule:evenodd;clip-rule:evenodd;stroke-linecap:round;stroke-linejoin:round;stroke-miterlimit:1.5;">
    <g transform="matrix(1,0,0,1,-4.62135,0.327925)">
        <g transform="matrix(1.12516,0,0,1.12516,-48.5562,-58.9149)">
            <path d="M198.103,545.7C249.459,550.836 356.511,526.594 407.69,608.882C440.89,662.262 444.84,708.403 444.342,770.424C443.794,838.644 427.368,894.476 427.368,894.476C463.718,887.922 501.838,887.193 542.391,894.476C542.391,894.476 514.742,818.59 506.46,751.593C497.698,680.715 494.722,585.101 537.73,522.979C556.292,496.166 617.003,449.416 684.323,441.979C756.863,433.965 828.216,464.554 828.216,464.554C806.351,442.141 777.007,428.252 739.859,423.259C761.83,406.983 789.065,401.206 812.789,397.396C778.646,396.674 740.617,402.216 707.294,422.724C683.371,419.239 654.039,419.433 623.672,427.253C623.672,427.253 658.087,393.706 676.919,335.123C699.136,266.009 699.509,171.34 699.361,180.165C699.008,188.81 674.534,281.531 672.324,279.23C657.414,242.117 636.662,213.952 611.117,193.13C611.117,193.13 670.243,247.333 640.76,337.19C628.475,374.631 496.96,483.676 496.96,483.676C496.96,483.676 487.787,409.421 482.646,392.283C464.58,332.066 429.649,295.574 434.002,230.275C435.654,205.495 459.458,170.367 459.458,170.367C433.47,186.233 413.712,212.302 403.209,253.527C373.832,232.03 343.936,214.942 312.935,202.024C312.935,202.024 374.052,235.815 399.679,297.572C408.52,318.879 439.839,368.872 446.769,422.864C455.354,489.755 438.599,560.277 438.599,560.277C438.599,560.277 418.165,497.952 396.314,455.418C363.51,391.564 302.02,362.636 277.116,322.982C257.2,291.269 242.914,242.358 242.914,242.358C243.431,278.274 247.936,313.026 267.108,343.498C230.348,341.434 192.022,354.949 156.532,371.384C156.532,371.384 241.359,361.977 262.713,373.476C272.623,378.812 308.922,388.061 344.117,440.543C370.768,480.285 383.761,534.115 383.761,534.115C383.761,534.115 317.197,522.527 281.211,527.075C243.639,531.823 205.625,546.775 198.103,545.7Z" style="fill:rgb(209,161,95);"/>
        </g>
        <g transform="matrix(1.12516,0,0,1.12516,-48.5562,-58.9149)">
            <path d="M285.708,173.048C302.268,181.573 307.036,202.074 307.036,202.074C307.036,202.074 293.696,214.171 269.275,203.703C248.085,194.621 244.924,170.32 244.924,170.32C244.924,170.32 269.149,164.522 285.708,173.048ZM591.847,155.695C605.15,168.243 603.613,189.367 603.613,189.367C603.613,189.367 587.255,197.659 567.011,181.197C549.445,166.912 553.65,142.517 553.65,142.517C553.65,142.517 578.544,143.147 591.847,155.695ZM478.426,128.652C491.55,115.435 516.382,113.481 516.382,113.481C516.382,113.481 520.868,137.572 503.511,152.746C483.508,170.234 467.088,162.84 467.088,162.84C467.088,162.84 465.302,141.868 478.426,128.652ZM865.962,477.892C880.416,489.829 884.009,515.323 884.009,515.323C884.009,515.323 859.47,523.013 842.731,506.936C823.438,488.408 830.013,470.453 830.013,470.453C830.013,470.453 851.509,465.956 865.962,477.892ZM698.62,127.573C705.327,110.197 727.28,98.428 727.28,98.428C727.28,98.428 741.069,118.686 731.274,139.556C719.984,163.608 701.977,163.436 701.977,163.436C701.977,163.436 691.914,144.949 698.62,127.573ZM230.857,216.834C241.74,229.111 238.771,247.779 238.771,247.779C238.771,247.779 223.591,253.79 206.83,237.449C192.287,223.271 197.877,201.915 197.877,201.915C197.877,201.915 219.975,204.556 230.857,216.834ZM229.08,270.151C242.323,279.836 243.388,298.708 243.388,298.708C243.388,298.708 229.833,307.808 209.982,295.402C192.759,284.638 193.682,262.582 193.682,262.582C193.682,262.582 215.837,260.467 229.08,270.151ZM167.191,329.159C178.501,337.415 179.145,353.907 179.145,353.907C179.145,353.907 167.286,362.088 150.301,351.559C135.564,342.423 136.688,323.113 136.688,323.113C136.688,323.113 155.88,320.902 167.191,329.159ZM212.413,319.181C219.063,330.103 213.705,344.315 213.705,344.315C213.705,344.315 200.705,347.148 190.05,332.333C180.805,319.479 188.673,303.488 188.673,303.488C188.673,303.488 205.763,308.26 212.413,319.181ZM359.144,182.091C363.842,198.785 352.409,212.636 352.409,212.636C352.409,212.636 338.024,208.379 331.701,189.726C327.003,175.866 337.63,158.113 337.63,158.113C337.63,158.113 355.179,168.003 359.144,182.091ZM664.997,169.43C669.386,189.943 653.225,206.054 653.225,206.054C653.225,206.054 635.074,200.041 628.783,177.059C624.108,159.981 639.621,139.093 639.621,139.093C639.621,139.093 661.293,152.12 664.997,169.43ZM414.671,179.806C418.585,202.382 408.832,208.513 408.832,208.513C408.832,208.513 394.744,208.346 383.393,182.387C377.293,168.437 387.728,152.719 387.728,152.719C387.728,152.719 412.07,164.806 414.671,179.806ZM858.016,405.724C829.254,411.59 817.735,395.451 817.735,395.451C817.735,395.451 818.486,378.597 852.485,369.363C870.755,364.402 890.683,379.55 890.683,379.55C890.683,379.55 886.648,399.885 858.016,405.724ZM126.094,391.157C103.1,395.805 91.701,381.829 91.701,381.829C91.701,381.829 93.75,368.793 115.632,363.232C135.236,358.251 149.787,371.624 149.787,371.624C149.787,371.624 142.047,387.933 126.094,391.157ZM164.151,569.787C139.808,574.709 127.705,559.736 127.705,559.736C127.705,559.736 129.847,545.797 153.012,539.896C173.763,534.61 189.203,548.944 189.203,548.944C189.203,548.944 181.04,566.372 164.151,569.787ZM209.141,498.056C223.895,506.827 225.934,525.724 225.934,525.724C225.934,525.724 206.811,533.924 189.034,522.135C169.191,508.976 171.679,495.315 171.679,495.315C171.679,495.315 187.876,485.416 209.141,498.056ZM312.442,259.468C286.449,262.98 274.695,246.122 274.695,246.122C274.695,246.122 277.89,231.39 302.705,226.748C324.937,222.591 340.251,239.005 340.251,239.005C340.251,239.005 330.475,257.032 312.442,259.468ZM592.972,249.422C566.837,247.213 559.019,228.207 559.019,228.207C559.019,228.207 565.332,214.518 590.564,215.37C613.168,216.132 624.558,235.478 624.558,235.478C624.558,235.478 611.105,250.955 592.972,249.422ZM487.779,218.737C470.577,224.673 446.828,210.932 446.828,210.932C446.828,210.932 455.629,190.211 477.355,183.924C501.606,176.907 517.776,192.575 517.776,192.575C517.776,192.575 512.573,210.182 487.779,218.737ZM770.368,496.358C762.884,479.771 774.396,454.864 774.396,454.864C774.396,454.864 795.836,461.734 804.082,482.794C813.287,506.302 799.164,523.837 799.164,523.837C799.164,523.837 781.155,520.266 770.368,496.358ZM747.806,211.417C732.322,217.155 710.195,204.408 710.195,204.408C710.195,204.408 717.515,184.808 737.113,178.701C758.988,171.885 774.268,186.512 774.268,186.512C774.268,186.512 770.125,203.146 747.806,211.417ZM356.873,297.607C333.863,297.993 325.355,282.062 325.355,282.062C325.355,282.062 329.654,269.528 351.755,268.034C371.554,266.696 383.21,282.608 383.21,282.608C383.21,282.608 372.837,297.34 356.873,297.607ZM796.706,352.414C782.787,379.631 758.609,379.557 758.609,379.557C758.609,379.557 746.455,366.611 758.495,339.761C769.281,315.707 795.402,312.079 795.402,312.079C795.402,312.079 806.363,333.53 796.706,352.414ZM613.989,304.3C589.279,299.249 584.078,279.645 584.078,279.645C584.078,279.645 591.745,266.838 615.754,270.45C637.262,273.687 645.835,294.018 645.835,294.018C645.835,294.018 631.132,307.804 613.989,304.3ZM474.865,271.595C459.713,276.628 440.748,267.335 440.748,267.335C440.748,267.335 446.06,247.775 465.186,242.482C486.534,236.574 499.571,246.885 499.571,246.885C499.571,246.885 496.705,264.34 474.865,271.595ZM713.102,484.89C708.12,469.721 717.476,450.787 717.476,450.787C717.476,450.787 737.018,456.165 742.247,475.308C748.083,496.676 737.729,509.679 737.729,509.679C737.729,509.679 720.283,506.754 713.102,484.89ZM744.857,272.073C728.512,278.918 706.499,269.673 706.499,269.673C706.499,269.673 710.455,246.943 731.192,239.515C754.339,231.222 769.863,242.059 769.863,242.059C769.863,242.059 768.417,262.207 744.857,272.073ZM366.052,352.255C369.405,375.022 354.705,385.515 354.705,385.515C354.705,385.515 341.721,382.87 337.387,361.147C333.505,341.686 347.778,328.074 347.778,328.074C347.778,328.074 363.726,336.458 366.052,352.255ZM726.732,384.257C715.201,408.414 694.381,409.099 694.381,409.099C694.381,409.099 683.698,398.192 693.617,374.412C702.502,353.11 724.935,349.136 724.935,349.136C724.935,349.136 734.732,367.496 726.732,384.257ZM239.407,404.173C222.455,419.737 205.517,413.471 205.517,413.471C205.517,413.471 200.411,401.243 215.948,385.454C229.866,371.31 249.146,375.471 249.146,375.471C249.146,375.471 251.169,393.375 239.407,404.173ZM285.13,586.487C267.485,601.982 250.56,595.456 250.56,595.456C250.56,595.456 245.792,583.06 262.014,567.321C276.546,553.222 295.907,557.653 295.907,557.653C295.907,557.653 297.373,575.737 285.13,586.487ZM320.136,485.921C329.123,499.511 322.956,516.574 322.956,516.574C322.956,516.574 303.111,515.761 292.795,498.338C281.28,478.89 289.137,468.182 289.137,468.182C289.137,468.182 307.183,466.334 320.136,485.921ZM178.351,404.61C160.839,419.541 144.142,412.658 144.142,412.658C144.142,412.658 139.488,400.251 155.594,385.043C170.023,371.419 189.137,376.285 189.137,376.285C189.137,376.285 190.501,394.251 178.351,404.61ZM228.428,581.569C211.764,599.002 193.26,593.248 193.26,593.248C193.26,593.248 186.804,580.533 201.946,562.937C215.511,547.173 236.321,550.567 236.321,550.567C236.321,550.567 239.988,569.475 228.428,581.569ZM266.655,486.604C275.809,500.609 268.746,518.527 268.746,518.527C268.746,518.527 247.667,518.058 237.213,500.08C225.544,480.011 234.217,468.691 234.217,468.691C234.217,468.691 253.461,466.418 266.655,486.604ZM323.895,314.555C327.987,337.201 313.637,348.167 313.637,348.167C313.637,348.167 300.574,345.946 295.535,324.376C291.021,305.052 304.844,290.982 304.844,290.982C304.844,290.982 321.056,298.843 323.895,314.555ZM728.22,322.831C703.96,327.438 692.08,312.275 692.08,312.275C692.08,312.275 694.355,298.337 717.454,292.734C738.146,287.714 753.352,302.281 753.352,302.281C753.352,302.281 745.052,319.634 728.22,322.831ZM447.136,146.706C444.366,169.467 432.485,175.595 432.485,175.595C432.485,175.595 416.161,165.512 414.335,143.788C413.058,128.587 428.316,115.265 428.316,115.265C428.316,115.265 448.977,131.581 447.136,146.706ZM860.562,455.876C832.986,457.349 822.087,446.123 822.087,446.123C822.087,446.123 828.827,427.151 853.752,421.079C871.193,416.83 891.589,430.202 891.589,430.202C891.589,430.202 878.886,454.897 860.562,455.876Z" style="fill:rgb(132,203,90);"/>
        </g>
    </g>
    <g transform="matrix(0.991586,0,0,1.10267,5.26428,-234.687)">
        <path d="M638.518,891.132L638.518,938.29C638.518,951.304 626.769,961.87 612.297,961.87L381.956,961.87C367.485,961.87 355.736,951.304 355.736,938.29L355.736,891.132C355.736,878.118 367.485,867.553 381.956,867.553L612.297,867.553C626.769,867.553 638.518,878.118 638.518,891.132Z" style="fill:rgb(250,250,250);fill-opacity:0.75;stroke:black;stroke-width:4.77px;"/>
    </g>
    <g>
        <path d="M254.981,628.919L254.981,675.428L740.8,675.428L740.8,628.919M497.891,675.428L497.891,721.936" style="fill:none;stroke:black;stroke-width:5px;"/>
        <g transform="matrix(1.22888,0,0,0.646387,-343.251,85.6912)">
            <path d="M582.42,733.152L582.42,805.375C582.42,825.306 573.908,841.487 563.425,841.487L410.194,841.487C399.711,841.487 391.199,825.306 391.199,805.375L391.199,733.152C391.199,713.222 399.711,697.041 410.194,697.041L563.425,697.041C573.908,697.041 582.42,713.222 582.42,733.152Z" style="fill:rgb(240,240,240);fill-opacity:0.75;stroke:black;stroke-width:5.09px;"/>
        </g>
        <g transform="matrix(1.22895,0,0,0.646387,142.536,85.6912)">
            <path d="M582.42,733.152L582.42,805.375C582.42,825.306 573.909,840.408 563.426,840.408L410.193,840.408C399.71,840.408 391.199,825.306 391.199,805.375L391.199,733.152C391.199,713.222 399.71,697.041 410.193,697.041L563.426,697.041C573.909,697.041 582.42,713.222 582.42,733.152Z" style="fill:rgb(240,240,240);fill-opacity:0.75;stroke:black;stroke-width:5.09px;"/>
        </g>
    </g>
    <g transform="matrix(1,0,0,1,17.0079,0)">
        <g transform="matrix(0.486347,0,0,1,483.617,-184.488)">
            <path d="M244.92,634.529L244.92,675.428L741.312,675.428L741.312,634.529M493.116,675.428L493.116,720.737" style="fill:none;stroke:black;stroke-width:6.36px;"/>
        </g>
        <g transform="matrix(-0.806271,0,0,0.654034,1236.65,-100.32)">
            <path d="M582.42,733.152L582.42,805.375C582.42,825.306 569.294,841.487 553.126,841.487L420.493,841.487C404.325,841.487 391.199,825.306 391.199,805.375L391.199,733.152C391.199,713.222 404.325,697.041 420.493,697.041L553.126,697.041C569.294,697.041 582.42,713.222 582.42,733.152Z" style="fill:rgb(224,224,224);fill-opacity:0.75;stroke:black;stroke-width:6.81px;"/>
        </g>
        <g transform="matrix(-0.806271,0,0,0.654034,995.234,-100.32)">
            <path d="M582.42,733.152L582.42,805.375C582.42,825.306 569.294,841.487 553.126,841.487L420.493,841.487C404.325,841.487 391.199,825.306 391.199,805.375L391.199,733.152C391.199,713.222 404.325,697.041 420.493,697.041L553.126,697.041C569.294,697.041 582.42,713.222 582.42,733.152Z" style="fill:rgb(224,224,224);fill-opacity:0.75;stroke:black;stroke-width:6.81px;"/>
        </g>
    </g>
    <g>
        <g transform="matrix(0.806271,0,0,0.654034,-258.222,-100.32)">
            <path d="M582.42,733.152L582.42,805.375C582.42,825.306 569.294,841.487 553.126,841.487L420.493,841.487C404.325,841.487 391.199,825.306 391.199,805.375L391.199,733.152C391.199,713.222 404.325,697.041 420.493,697.041L553.126,697.041C569.294,697.041 582.42,713.222 582.42,733.152Z" style="fill:rgb(224,224,224);fill-opacity:0.75;stroke:black;stroke-width:6.81px;"/>
        </g>
        <g transform="matrix(0.806271,0,0,0.654034,-16.8161,-100.32)">
            <path d="M582.42,733.152L582.42,805.375C582.42,825.306 569.294,841.487 553.126,841.487L420.493,841.487C404.325,841.487 391.199,825.306 391.199,805.375L391.199,733.152C391.199,713.222 404.325,697.041 420.493,697.041L553.126,697.041C569.294,697.041 582.42,713.222 582.42,733.152Z" style="fill:rgb(224,224,224);fill-opacity:0.75;stroke:black;stroke-width:6.81px;"/>
        </g>
        <g transform="matrix(0.486347,0,0,1,9.34532,-184.488)">
            <path d="M256.88,634.529L256.88,675.428L753.246,675.428L753.246,634.529M505.063,675.428L505.063,720.737" style="fill:none;stroke:black;stroke-width:6.36px;"/>
        </g>
    </g>
    <g transform="matrix(1,0,0,1,725.846,0)">
        <g transform="matrix(0.24235,0,0,0.904724,9.06074,-295.988)">
            <path d="M243.402,636.79L243.402,678.447L788.021,678.447L788.021,636.79M516.681,678.447L516.681,720.104" style="fill:none;stroke:black;stroke-width:7.55px;"/>
        </g>
        <g transform="matrix(0.496546,0,0,0.450687,-173.674,-99.1156)">
            <path d="M582.42,733.152L582.42,805.375C582.42,825.306 567.733,841.487 549.643,841.487L423.976,841.487C405.886,841.487 391.199,825.306 391.199,805.375L391.199,733.152C391.199,713.222 405.886,697.041 423.976,697.041L549.643,697.041C567.733,697.041 582.42,713.222 582.42,733.152Z" style="fill:rgb(209,209,209);fill-opacity:0.75;stroke:black;stroke-width:10.54px;"/>
        </g>
        <g transform="matrix(0.496546,0,0,0.450687,-41.6862,-99.1156)">
            <path d="M582.42,733.152L582.42,805.375C582.42,825.306 567.733,841.487 549.643,841.487L423.976,841.487C405.886,841.487 391.199,825.306 391.199,805.375L391.199,733.152C391.199,713.222 405.886,697.041 423.976,697.041L549.643,697.041C567.733,697.041 582.42,713.222 582.42,733.152Z" style="fill:rgb(209,209,209);fill-opacity:0.75;stroke:black;stroke-width:10.54px;"/>
        </g>
    </g>
    <g transform="matrix(1,0,0,1,485.906,0)">
        <g transform="matrix(0.24235,0,0,0.904724,9.06074,-295.988)">
            <path d="M243.402,636.79L243.402,678.447L788.021,678.447L788.021,636.79M516.681,678.447L516.681,720.104" style="fill:none;stroke:black;stroke-width:7.55px;"/>
        </g>
        <g transform="matrix(0.496546,0,0,0.450687,-173.674,-99.1156)">
            <path d="M582.42,733.152L582.42,805.375C582.42,825.306 567.733,841.487 549.643,841.487L423.976,841.487C405.886,841.487 391.199,825.306 391.199,805.375L391.199,733.152C391.199,713.222 405.886,697.041 423.976,697.041L549.643,697.041C567.733,697.041 582.42,713.222 582.42,733.152Z" style="fill:rgb(209,209,209);fill-opacity:0.75;stroke:black;stroke-width:10.54px;"/>
        </g>
        <g transform="matrix(0.496546,0,0,0.450687,-41.6862,-99.1156)">
            <path d="M582.42,733.152L582.42,805.375C582.42,825.306 567.733,841.487 549.643,841.487L423.976,841.487C405.886,841.487 391.199,825.306 391.199,805.375L391.199,733.152C391.199,713.222 405.886,697.041 423.976,697.041L549.643,697.041C567.733,697.041 582.42,713.222 582.42,733.152Z" style="fill:rgb(209,209,209);fill-opacity:0.75;stroke:black;stroke-width:10.54px;"/>
        </g>
    </g>
    <g transform="matrix(1,0,0,1,241.14,0)">
        <g transform="matrix(0.24235,0,0,0.904724,9.06074,-295.988)">
            <path d="M243.402,636.79L243.402,678.447L788.021,678.447L788.021,636.79M516.681,678.447L516.681,720.104" style="fill:none;stroke:black;stroke-width:7.55px;"/>
        </g>
        <g transform="matrix(0.496546,0,0,0.450687,-173.674,-99.1156)">
            <path d="M582.42,733.152L582.42,805.375C582.42,825.306 567.733,841.487 549.643,841.487L423.976,841.487C405.886,841.487 391.199,825.306 391.199,805.375L391.199,733.152C391.199,713.222 405.886,697.041 423.976,697.041L549.643,697.041C567.733,697.041 582.42,713.222 582.42,733.152Z" style="fill:rgb(209,209,209);fill-opacity:0.75;stroke:black;stroke-width:10.54px;"/>
        </g>
        <g transform="matrix(0.496546,0,0,0.450687,-41.6862,-99.1156)">
            <path d="M582.42,733.152L582.42,805.375C582.42,825.306 567.733,841.487 549.643,841.487L423.976,841.487C405.886,841.487 391.199,825.306 391.199,805.375L391.199,733.152C391.199,713.222 405.886,697.041 423.976,697.041L549.643,697.041C567.733,697.041 582.42,713.222 582.42,733.152Z" style="fill:rgb(209,209,209);fill-opacity:0.75;stroke:black;stroke-width:10.54px;"/>
        </g>
    </g>
    <g>
        <g transform="matrix(0.24235,0,0,0.904724,9.06074,-295.988)">
            <path d="M243.402,636.79L243.402,678.447L788.021,678.447L788.021,636.79M516.681,678.447L516.681,720.104" style="fill:none;stroke:black;stroke-width:7.55px;"/>
        </g>
        <g transform="matrix(0.496546,0,0,0.450687,-173.674,-99.1156)">
            <path d="M582.42,733.152L582.42,805.375C582.42,825.306 567.733,841.487 549.643,841.487L423.976,841.487C405.886,841.487 391.199,825.306 391.199,805.375L391.199,733.152C391.199,713.222 405.886,697.041 423.976,697.041L549.643,697.041C567.733,697.041 582.42,713.222 582.42,733.152Z" style="fill:rgb(209,209,209);fill-opacity:0.75;stroke:black;stroke-width:10.54px;"/>
        </g>
        <g transform="matrix(0.496546,0,0,0.450687,-41.6862,-99.1156)">
            <path d="M582.42,733.152L582.42,805.375C582.42,825.306 567.733,841.487 549.643,841.487L423.976,841.487C405.886,841.487 391.199,825.306 391.199,805.375L391.199,733.152C391.199,713.222 405.886,697.041 423.976,697.041L549.643,697.041C567.733,697.041 582.42,713.222 582.42,733.152Z" style="fill:rgb(209,209,209);fill-opacity:0.75;stroke:black;stroke-width:10.54px;"/>
        </g>
    </g>
</svg>
